<svg width="180" height="66" viewBox="0 0 180 66" fill="none" xmlns="http://www.w3.org/2000/svg">
<g clip-path="url(#clip0_3_10)">
<path d="M12.88 33C11.8133 33 10.9067 32.84 10.16 32.52C9.44 32.2 8.88 31.6533 8.48 30.88C8.10667 30.08 7.92 29.0133 7.92 27.68V14.4H4.4V12.84H7.92L8.2 8.44H9.72V12.84H16.04V14.4H9.72V27.64C9.72 29.0533 10 30.04 10.56 30.6C11.12 31.16 12.0667 31.44 13.4 31.44H15.64V33H12.88ZM26.1053 33.48C24.2653 33.48 22.612 33.0533 21.1453 32.2C19.7053 31.3467 18.5586 30.1333 17.7053 28.56C16.8786 26.96 16.4653 25.0933 16.4653 22.96C16.4653 20.7467 16.892 18.8533 17.7453 17.28C18.5986 15.7067 19.7586 14.4933 21.2253 13.64C22.692 12.7867 24.3453 12.36 26.1853 12.36C28.052 12.36 29.7053 12.7867 31.1453 13.64C32.612 14.4933 33.7586 15.7067 34.5853 17.28C35.4386 18.8533 35.8653 20.7467 35.8653 22.96C35.8653 25.0933 35.4386 26.96 34.5853 28.56C33.732 30.1333 32.572 31.3467 31.1053 32.2C29.6386 33.0533 27.972 33.48 26.1053 33.48ZM26.1053 31.88C27.492 31.88 28.772 31.5467 29.9453 30.88C31.1453 30.2133 32.1186 29.2133 32.8653 27.88C33.612 26.5467 33.9853 24.8933 33.9853 22.92C33.9853 20.9467 33.612 19.2933 32.8653 17.96C32.1453 16.6267 31.1853 15.64 29.9853 15C28.812 14.3333 27.5453 14 26.1853 14C24.8253 14 23.5453 14.3333 22.3453 15C21.1453 15.6667 20.172 16.6667 19.4253 18C18.7053 19.3067 18.3453 20.9467 18.3453 22.92C18.3453 24.8933 18.7053 26.5467 19.4253 27.88C20.172 29.2133 21.132 30.2133 22.3053 30.88C23.4786 31.5467 24.7453 31.88 26.1053 31.88ZM38.2275 41.8V12.84H39.8275L40.0275 17.88C40.4275 16.8667 41.0008 15.9467 41.7475 15.12C42.4942 14.2933 43.4008 13.6267 44.4675 13.12C45.5608 12.6133 46.7875 12.36 48.1475 12.36C50.0942 12.36 51.7742 12.8267 53.1875 13.76C54.6275 14.6667 55.7342 15.92 56.5075 17.52C57.2808 19.0933 57.6675 20.9067 57.6675 22.96C57.6675 24.9867 57.2808 26.8 56.5075 28.4C55.7342 29.9733 54.6275 31.2133 53.1875 32.12C51.7742 33.0267 50.0808 33.48 48.1075 33.48C46.1875 33.48 44.5208 32.9867 43.1075 32C41.6942 31.0133 40.6675 29.64 40.0275 27.88V41.8H38.2275ZM48.0275 31.84C49.5475 31.84 50.8808 31.48 52.0275 30.76C53.2008 30.04 54.1208 29.0133 54.7875 27.68C55.4542 26.3467 55.7875 24.76 55.7875 22.92C55.7875 21.1067 55.4542 19.5333 54.7875 18.2C54.1208 16.8667 53.2008 15.84 52.0275 15.12C50.8808 14.3733 49.5475 14 48.0275 14C46.5075 14 45.1608 14.3867 43.9875 15.16C42.8142 15.9067 41.8942 16.96 41.2275 18.32C40.5875 19.6533 40.2675 21.1867 40.2675 22.92C40.2675 24.68 40.5875 26.24 41.2275 27.6C41.8942 28.9333 42.8142 29.9733 43.9875 30.72C45.1608 31.4667 46.5075 31.84 48.0275 31.84ZM66.7934 42.28C65.0334 42.28 63.4734 42.0267 62.1134 41.52C60.7534 41.0133 59.6734 40.2667 58.8734 39.28C58.1001 38.32 57.7134 37.1467 57.7134 35.76C57.7134 35.0667 57.8201 34.3867 58.0334 33.72C58.2734 33.0533 58.6868 32.4 59.2734 31.76C59.8868 31.12 60.7401 30.48 61.8334 29.84L63.3934 30.56C61.8734 31.36 60.8468 32.1733 60.3134 33C59.8068 33.8533 59.5534 34.7067 59.5534 35.56C59.5534 36.6267 59.8601 37.5333 60.4734 38.28C61.1134 39.0533 61.9801 39.64 63.0734 40.04C64.1668 40.4667 65.4068 40.68 66.7934 40.68C68.2601 40.68 69.5134 40.48 70.5534 40.08C71.5934 39.68 72.3934 39.1067 72.9534 38.36C73.5401 37.6133 73.8334 36.76 73.8334 35.8C73.8334 34.4667 73.3534 33.4133 72.3934 32.64C71.4601 31.84 69.7668 31.3733 67.3134 31.24C65.8201 31.1333 64.5668 31 63.5534 30.84C62.5401 30.68 61.6868 30.4933 60.9934 30.28C60.3001 30.04 59.7134 29.7867 59.2334 29.52C58.7801 29.2533 58.3534 28.9867 57.9534 28.72V27.92L61.5534 24.72L63.2734 25.36L59.5534 28.52V27.68C59.9001 27.8667 60.2334 28.0533 60.5534 28.24C60.9001 28.4267 61.3268 28.6 61.8334 28.76C62.3668 28.92 63.0868 29.08 63.9934 29.24C64.9268 29.3733 66.1534 29.4933 67.6734 29.6C69.6468 29.7333 71.2201 30.0667 72.3934 30.6C73.5668 31.1067 74.4068 31.7867 74.9134 32.64C75.4201 33.4933 75.6734 34.5067 75.6734 35.68C75.6734 36.8 75.3668 37.8667 74.7534 38.88C74.1668 39.8933 73.2201 40.7067 71.9134 41.32C70.6068 41.96 68.9001 42.28 66.7934 42.28ZM66.7534 26.72C65.0201 26.72 63.5801 26.4 62.4334 25.76C61.2868 25.12 60.4201 24.2667 59.8334 23.2C59.2468 22.1067 58.9534 20.8933 58.9534 19.56C58.9534 18.1733 59.2468 16.9467 59.8334 15.88C60.4201 14.7867 61.2868 13.9333 62.4334 13.32C63.5801 12.68 65.0201 12.36 66.7534 12.36C68.5401 12.36 70.0068 12.68 71.1534 13.32C72.3001 13.9333 73.1534 14.7867 73.7134 15.88C74.2734 16.9467 74.5534 18.1733 74.5534 19.56C74.5534 20.8933 74.2734 22.1067 73.7134 23.2C73.1534 24.2667 72.3001 25.12 71.1534 25.76C70.0068 26.4 68.5401 26.72 66.7534 26.72ZM66.7534 25.12C68.7268 25.12 70.2201 24.64 71.2334 23.68C72.2468 22.6933 72.7534 21.32 72.7534 19.56C72.7534 17.6667 72.2334 16.2667 71.1934 15.36C70.1534 14.4267 68.6734 13.96 66.7534 13.96C64.9401 13.96 63.4868 14.4267 62.3934 15.36C61.3268 16.2667 60.7934 17.6667 60.7934 19.56C60.7934 21.3733 61.3268 22.76 62.3934 23.72C63.4868 24.6533 64.9401 25.12 66.7534 25.12ZM70.2734 14.48L69.6334 12.84H77.2734V14.36L70.2734 14.48ZM79.4431 33V12.84H81.0431L81.2431 16.92C81.6965 15.8533 82.2831 14.9867 83.0031 14.32C83.7498 13.6533 84.6298 13.16 85.6431 12.84C86.6565 12.52 87.8031 12.36 89.0831 12.36V14.2H88.3631C87.5631 14.2 86.7365 14.3067 85.8831 14.52C85.0565 14.7333 84.2831 15.12 83.5631 15.68C82.8698 16.2133 82.3098 16.9867 81.8831 18C81.4565 19.0133 81.2431 20.3067 81.2431 21.88V33H79.4431ZM96.6388 33.48C95.1188 33.48 93.8388 33.1867 92.7988 32.6C91.7588 32.0133 90.9721 31.2533 90.4388 30.32C89.9054 29.36 89.6388 28.3333 89.6388 27.24C89.6388 25.7733 89.9721 24.5733 90.6388 23.64C91.3054 22.7067 92.2388 22.0133 93.4388 21.56C94.6654 21.08 96.0788 20.84 97.6788 20.84H103.759C103.759 19.4 103.545 18.1733 103.119 17.16C102.719 16.1467 102.092 15.36 101.239 14.8C100.385 14.24 99.2654 13.96 97.8788 13.96C96.2521 13.96 94.9054 14.3467 93.8388 15.12C92.7988 15.8933 92.1321 17.0667 91.8388 18.64H89.9988C90.1854 17.2267 90.6521 16.0667 91.3988 15.16C92.1721 14.2267 93.1188 13.5333 94.2388 13.08C95.3588 12.6 96.5721 12.36 97.8788 12.36C99.7188 12.36 101.199 12.7333 102.319 13.48C103.439 14.2 104.252 15.1867 104.759 16.44C105.292 17.6667 105.559 19.0667 105.559 20.64V33H103.959L103.759 28.96C103.545 29.3867 103.252 29.8667 102.879 30.4C102.505 30.9333 102.039 31.4267 101.479 31.88C100.919 32.3333 100.239 32.7067 99.4388 33C98.6654 33.32 97.7321 33.48 96.6388 33.48ZM96.8388 31.84C97.9854 31.84 98.9854 31.6267 99.8388 31.2C100.692 30.7467 101.412 30.16 101.999 29.44C102.585 28.6933 103.025 27.8933 103.319 27.04C103.612 26.1867 103.759 25.3467 103.759 24.52V22.4H97.7988C96.2254 22.4 94.9854 22.6133 94.0788 23.04C93.1721 23.44 92.5188 24 92.1188 24.72C91.7454 25.44 91.5588 26.2667 91.5588 27.2C91.5588 28.0533 91.7588 28.84 92.1588 29.56C92.5588 30.2533 93.1588 30.8133 93.9588 31.24C94.7588 31.64 95.7188 31.84 96.8388 31.84ZM116.993 33.48C115.046 33.48 113.353 33.0267 111.913 32.12C110.5 31.1867 109.406 29.9333 108.633 28.36C107.86 26.76 107.473 24.9467 107.473 22.92C107.473 20.8933 107.86 19.0933 108.633 17.52C109.406 15.92 110.513 14.6667 111.953 13.76C113.393 12.8267 115.086 12.36 117.033 12.36C118.98 12.36 120.646 12.8667 122.033 13.88C123.446 14.8667 124.473 16.2267 125.113 17.96V4.2H126.913V33H125.313L125.073 28.04C124.673 29.0533 124.086 29.9733 123.313 30.8C122.566 31.6 121.66 32.2533 120.593 32.76C119.526 33.24 118.326 33.48 116.993 33.48ZM117.113 31.84C118.633 31.84 119.98 31.4667 121.153 30.72C122.326 29.9467 123.233 28.8933 123.873 27.56C124.54 26.2 124.873 24.6533 124.873 22.92C124.873 21.16 124.54 19.6133 123.873 18.28C123.233 16.92 122.326 15.8667 121.153 15.12C120.006 14.3733 118.66 14 117.113 14C115.62 14 114.273 14.36 113.073 15.08C111.9 15.8 110.98 16.84 110.313 18.2C109.646 19.5333 109.313 21.1067 109.313 22.92C109.313 24.7333 109.646 26.3067 110.313 27.64C111.006 28.9733 111.94 30.0133 113.113 30.76C114.286 31.48 115.62 31.84 117.113 31.84ZM138.492 33.48C136.599 33.48 134.959 33.04 133.572 32.16C132.212 31.28 131.159 30.04 130.412 28.44C129.665 26.84 129.292 24.96 129.292 22.8C129.292 20.6133 129.679 18.7467 130.452 17.2C131.252 15.6533 132.345 14.4667 133.732 13.64C135.145 12.7867 136.759 12.36 138.572 12.36C140.519 12.36 142.145 12.8 143.452 13.68C144.759 14.5333 145.745 15.6667 146.412 17.08C147.079 18.4933 147.412 20.04 147.412 21.72C147.412 21.9867 147.412 22.24 147.412 22.48C147.412 22.72 147.399 23 147.372 23.32H130.572V21.76H145.652C145.625 19.1733 144.945 17.2267 143.612 15.92C142.279 14.6133 140.572 13.96 138.492 13.96C137.212 13.96 136.012 14.2533 134.892 14.84C133.772 15.4267 132.852 16.3333 132.132 17.56C131.439 18.7867 131.092 20.3467 131.092 22.24V22.96C131.092 24.9867 131.439 26.6667 132.132 28C132.825 29.3067 133.732 30.28 134.852 30.92C135.972 31.56 137.185 31.88 138.492 31.88C140.172 31.88 141.559 31.4933 142.652 30.72C143.745 29.92 144.545 28.8 145.052 27.36H146.852C146.505 28.5333 145.959 29.5867 145.212 30.52C144.492 31.4533 143.572 32.1867 142.452 32.72C141.332 33.2267 140.012 33.48 138.492 33.48ZM156.531 33.48C155.064 33.48 153.744 33.24 152.571 32.76C151.397 32.2533 150.451 31.5067 149.731 30.52C149.037 29.5333 148.597 28.3067 148.411 26.84H150.331C150.437 27.9067 150.771 28.8133 151.331 29.56C151.917 30.3067 152.664 30.88 153.571 31.28C154.477 31.6533 155.477 31.84 156.571 31.84C157.664 31.84 158.584 31.6667 159.331 31.32C160.104 30.9733 160.691 30.4933 161.091 29.88C161.517 29.24 161.731 28.5333 161.731 27.76C161.731 26.7733 161.517 26.0133 161.091 25.48C160.691 24.92 160.077 24.4933 159.251 24.2C158.424 23.9067 157.384 23.64 156.131 23.4C155.117 23.2133 154.197 22.9733 153.371 22.68C152.571 22.3867 151.877 22.0267 151.291 21.6C150.704 21.1733 150.251 20.6533 149.931 20.04C149.637 19.4 149.491 18.68 149.491 17.88C149.491 16.7867 149.757 15.8267 150.291 15C150.851 14.1733 151.624 13.5333 152.611 13.08C153.597 12.6 154.771 12.36 156.131 12.36C158.051 12.36 159.637 12.8667 160.891 13.88C162.171 14.8933 162.904 16.3867 163.091 18.36H161.251C161.171 17.0533 160.677 16 159.771 15.2C158.891 14.4 157.664 14 156.091 14C154.571 14 153.397 14.3467 152.571 15.04C151.771 15.7067 151.371 16.6 151.371 17.72C151.371 18.36 151.531 18.9333 151.851 19.44C152.197 19.9467 152.744 20.4 153.491 20.8C154.237 21.1733 155.237 21.4933 156.491 21.76C157.797 22 158.984 22.3067 160.051 22.68C161.144 23.0533 162.011 23.6133 162.651 24.36C163.291 25.1067 163.611 26.1733 163.611 27.56C163.611 28.7067 163.317 29.7333 162.731 30.64C162.171 31.52 161.357 32.2133 160.291 32.72C159.251 33.2267 157.997 33.48 156.531 33.48Z" fill="black"/>
<path d="M10.552 62.384C9.208 62.384 8.09867 62.1707 7.224 61.744C6.34933 61.296 5.69867 60.7093 5.272 59.984C4.86667 59.2373 4.664 58.416 4.664 57.52C4.664 56.5387 4.90933 55.6747 5.4 54.928C5.912 54.1813 6.66933 53.5947 7.672 53.168C8.696 52.7413 9.976 52.528 11.512 52.528H15.512C15.512 51.7387 15.4053 51.088 15.192 50.576C14.9787 50.0427 14.648 49.648 14.2 49.392C13.752 49.136 13.1547 49.008 12.408 49.008C11.5973 49.008 10.904 49.1893 10.328 49.552C9.77333 49.8933 9.432 50.4267 9.304 51.152H5.112C5.21867 50 5.592 49.008 6.232 48.176C6.89333 47.3227 7.75733 46.6613 8.824 46.192C9.912 45.7227 11.1173 45.488 12.44 45.488C13.9547 45.488 15.2667 45.744 16.376 46.256C17.4853 46.768 18.3387 47.504 18.936 48.464C19.5333 49.424 19.832 50.608 19.832 52.016V62H16.184L15.704 59.536C15.4693 59.9627 15.192 60.3467 14.872 60.688C14.552 61.0293 14.1787 61.328 13.752 61.584C13.3253 61.84 12.8453 62.032 12.312 62.16C11.7787 62.3093 11.192 62.384 10.552 62.384ZM11.576 59.056C12.1307 59.056 12.6213 58.96 13.048 58.768C13.496 58.5547 13.88 58.2773 14.2 57.936C14.52 57.5733 14.7653 57.168 14.936 56.72C15.128 56.2507 15.256 55.7493 15.32 55.216V55.184H12.024C11.3627 55.184 10.8187 55.2693 10.392 55.44C9.98667 55.5893 9.688 55.8133 9.496 56.112C9.304 56.4107 9.208 56.752 9.208 57.136C9.208 57.5627 9.304 57.9147 9.496 58.192C9.688 58.4693 9.96533 58.6827 10.328 58.832C10.6907 58.9813 11.1067 59.056 11.576 59.056ZM32.438 62.384C31.606 62.384 30.8593 62.2773 30.198 62.064C29.558 61.8507 28.982 61.5627 28.47 61.2C27.9793 60.816 27.5633 60.3893 27.222 59.92L26.742 62H22.902V38.96H27.222V48.112C27.734 47.3653 28.406 46.7467 29.238 46.256C30.0913 45.744 31.1473 45.488 32.406 45.488C33.8993 45.488 35.222 45.8613 36.374 46.608C37.5473 47.3333 38.4647 48.336 39.126 49.616C39.8087 50.8747 40.15 52.3253 40.15 53.968C40.15 55.568 39.8087 57.008 39.126 58.288C38.4647 59.568 37.558 60.5707 36.406 61.296C35.254 62.0213 33.9313 62.384 32.438 62.384ZM31.414 58.608C32.2673 58.608 33.014 58.416 33.654 58.032C34.3153 57.6267 34.8273 57.0827 35.19 56.4C35.5527 55.696 35.734 54.8853 35.734 53.968C35.734 53.0507 35.5527 52.24 35.19 51.536C34.8273 50.8107 34.3153 50.256 33.654 49.872C33.014 49.4667 32.2673 49.264 31.414 49.264C30.582 49.264 29.8353 49.4667 29.174 49.872C28.534 50.256 28.022 50.8 27.638 51.504C27.2753 52.208 27.094 53.0187 27.094 53.936C27.094 54.8533 27.2753 55.6747 27.638 56.4C28.022 57.104 28.534 57.648 29.174 58.032C29.8353 58.416 30.582 58.608 31.414 58.608ZM42.9108 62V45.872H46.7508L47.1668 48.848C47.5508 48.144 48.0308 47.5467 48.6068 47.056C49.2041 46.5653 49.8761 46.1813 50.6228 45.904C51.3908 45.6267 52.2334 45.488 53.1508 45.488V50.064H51.6788C51.0388 50.064 50.4414 50.1387 49.8868 50.288C49.3534 50.4373 48.8841 50.6827 48.4788 51.024C48.0734 51.344 47.7641 51.792 47.5508 52.368C47.3374 52.944 47.2308 53.6693 47.2308 54.544V62H42.9108ZM62.4105 62.384C60.8745 62.384 59.4878 62.032 58.2505 61.328C57.0345 60.6027 56.0638 59.6107 55.3385 58.352C54.6345 57.072 54.2825 55.6107 54.2825 53.968C54.2825 52.2827 54.6345 50.8107 55.3385 49.552C56.0638 48.272 57.0452 47.28 58.2825 46.576C59.5198 45.8507 60.9065 45.488 62.4425 45.488C63.9998 45.488 65.3865 45.8507 66.6025 46.576C67.8398 47.28 68.8105 48.272 69.5145 49.552C70.2398 50.8107 70.6025 52.272 70.6025 53.936C70.6025 55.6 70.2398 57.072 69.5145 58.352C68.8105 59.6107 67.8398 60.6027 66.6025 61.328C65.3652 62.032 63.9678 62.384 62.4105 62.384ZM62.4105 58.64C63.1358 58.64 63.7758 58.4693 64.3305 58.128C64.9065 57.7867 65.3545 57.264 65.6745 56.56C66.0158 55.856 66.1865 54.9813 66.1865 53.936C66.1865 52.8907 66.0158 52.0267 65.6745 51.344C65.3545 50.64 64.9065 50.1173 64.3305 49.776C63.7758 49.4133 63.1465 49.232 62.4425 49.232C61.7598 49.232 61.1305 49.4133 60.5545 49.776C59.9785 50.1173 59.5198 50.64 59.1785 51.344C58.8585 52.0267 58.6985 52.8907 58.6985 53.936C58.6985 54.9813 58.8585 55.856 59.1785 56.56C59.5198 57.264 59.9678 57.7867 60.5225 58.128C61.0985 58.4693 61.7278 58.64 62.4105 58.64ZM78.8058 62.384C77.4618 62.384 76.3524 62.1707 75.4778 61.744C74.6031 61.296 73.9524 60.7093 73.5258 59.984C73.1204 59.2373 72.9178 58.416 72.9178 57.52C72.9178 56.5387 73.1631 55.6747 73.6538 54.928C74.1658 54.1813 74.9231 53.5947 75.9258 53.168C76.9498 52.7413 78.2298 52.528 79.7658 52.528H83.7658C83.7658 51.7387 83.6591 51.088 83.4458 50.576C83.2324 50.0427 82.9018 49.648 82.4538 49.392C82.0058 49.136 81.4084 49.008 80.6618 49.008C79.8511 49.008 79.1578 49.1893 78.5818 49.552C78.0271 49.8933 77.6858 50.4267 77.5578 51.152H73.3658C73.4724 50 73.8458 49.008 74.4858 48.176C75.1471 47.3227 76.0111 46.6613 77.0778 46.192C78.1658 45.7227 79.3711 45.488 80.6938 45.488C82.2084 45.488 83.5204 45.744 84.6298 46.256C85.7391 46.768 86.5924 47.504 87.1898 48.464C87.7871 49.424 88.0858 50.608 88.0858 52.016V62H84.4378L83.9578 59.536C83.7231 59.9627 83.4458 60.3467 83.1258 60.688C82.8058 61.0293 82.4324 61.328 82.0058 61.584C81.5791 61.84 81.0991 62.032 80.5658 62.16C80.0324 62.3093 79.4458 62.384 78.8058 62.384ZM79.8298 59.056C80.3844 59.056 80.8751 58.96 81.3018 58.768C81.7498 58.5547 82.1338 58.2773 82.4538 57.936C82.7738 57.5733 83.0191 57.168 83.1898 56.72C83.3818 56.2507 83.5098 55.7493 83.5738 55.216V55.184H80.2778C79.6164 55.184 79.0724 55.2693 78.6458 55.44C78.2404 55.5893 77.9418 55.8133 77.7498 56.112C77.5578 56.4107 77.4618 56.752 77.4618 57.136C77.4618 57.5627 77.5578 57.9147 77.7498 58.192C77.9418 58.4693 78.2191 58.6827 78.5818 58.832C78.9444 58.9813 79.3604 59.056 79.8298 59.056ZM98.3237 62.384C96.8517 62.384 95.5291 62.0213 94.3557 61.296C93.2037 60.5707 92.2971 59.568 91.6357 58.288C90.9744 57.008 90.6437 55.568 90.6437 53.968C90.6437 52.3253 90.9744 50.8747 91.6357 49.616C92.3184 48.336 93.2464 47.3333 94.4197 46.608C95.6144 45.8613 96.9477 45.488 98.4197 45.488C99.5717 45.488 100.585 45.7013 101.46 46.128C102.334 46.5547 103.038 47.1627 103.572 47.952V38.96H107.892V62H104.052L103.572 59.792C103.252 60.24 102.846 60.6667 102.356 61.072C101.886 61.4773 101.321 61.7973 100.66 62.032C99.9984 62.2667 99.2197 62.384 98.3237 62.384ZM99.3477 58.608C100.201 58.608 100.948 58.416 101.588 58.032C102.249 57.6267 102.761 57.072 103.124 56.368C103.486 55.664 103.668 54.8533 103.668 53.936C103.668 53.0187 103.486 52.208 103.124 51.504C102.761 50.8 102.249 50.256 101.588 49.872C100.948 49.4667 100.201 49.264 99.3477 49.264C98.5371 49.264 97.8011 49.4667 97.1397 49.872C96.4784 50.256 95.9557 50.8 95.5717 51.504C95.2091 52.208 95.0277 53.008 95.0277 53.904C95.0277 54.8427 95.2091 55.664 95.5717 56.368C95.9557 57.072 96.4677 57.6267 97.1077 58.032C97.7691 58.416 98.5157 58.608 99.3477 58.608Z" fill="black"/>
</g>
<defs>
<clipPath id="clip0_3_10">
<rect width="180" height="66" fill="white"/>
</clipPath>
</defs>
</svg>
