<svg width="477" height="184" viewBox="0 0 477 184" fill="none" xmlns="http://www.w3.org/2000/svg">
<line x1="7.5" y1="184.003" x2="7.5" y2="-4.29137e-06" stroke="#1303FF" stroke-width="15"/>
<path d="M47.128 83C43.736 83 40.76 82.488 38.2 81.464C35.704 80.376 33.752 78.616 32.344 76.184C30.936 73.688 30.232 70.296 30.232 66.008V45.464H21.976V34.616H30.232L31.672 21.464H43.192V34.616H55.96V45.464H43.192V66.2C43.192 68.376 43.672 69.88 44.632 70.712C45.592 71.544 47.224 71.96 49.528 71.96H55.864V83H47.128ZM85.6165 84.152C81.0085 84.152 76.8485 83.096 73.1365 80.984C69.4885 78.808 66.5765 75.832 64.4005 72.056C62.2885 68.216 61.2325 63.832 61.2325 58.904C61.2325 53.848 62.2885 49.432 64.4005 45.656C66.5765 41.816 69.5205 38.84 73.2325 36.728C76.9445 34.552 81.1045 33.464 85.7125 33.464C90.3845 33.464 94.5445 34.552 98.1925 36.728C101.905 38.84 104.817 41.816 106.929 45.656C109.104 49.432 110.192 53.816 110.192 58.808C110.192 63.8 109.104 68.216 106.929 72.056C104.817 75.832 101.905 78.808 98.1925 80.984C94.4805 83.096 90.2885 84.152 85.6165 84.152ZM85.6165 72.92C87.7925 72.92 89.7125 72.408 91.3765 71.384C93.1045 70.36 94.4485 68.792 95.4085 66.68C96.4325 64.568 96.9445 61.944 96.9445 58.808C96.9445 55.672 96.4325 53.08 95.4085 51.032C94.4485 48.92 93.1045 47.352 91.3765 46.328C89.7125 45.24 87.8245 44.696 85.7125 44.696C83.6645 44.696 81.7765 45.24 80.0485 46.328C78.3205 47.352 76.9445 48.92 75.9205 51.032C74.9605 53.08 74.4805 55.672 74.4805 58.808C74.4805 61.944 74.9605 64.568 75.9205 66.68C76.9445 68.792 78.2885 70.36 79.9525 71.384C81.6805 72.408 83.5685 72.92 85.6165 72.92ZM118.482 104.12V34.616H130.002L131.442 41.336C132.466 39.928 133.682 38.648 135.09 37.496C136.498 36.28 138.162 35.32 140.082 34.616C142.066 33.848 144.37 33.464 146.994 33.464C151.538 33.464 155.538 34.584 158.994 36.824C162.45 39.064 165.17 42.104 167.154 45.944C169.202 49.72 170.226 54.04 170.226 58.904C170.226 63.768 169.202 68.12 167.154 71.96C165.106 75.736 162.354 78.712 158.898 80.888C155.442 83.064 151.506 84.152 147.09 84.152C143.506 84.152 140.402 83.512 137.778 82.232C135.218 80.888 133.106 79.064 131.442 76.76V104.12H118.482ZM144.018 72.824C146.578 72.824 148.818 72.248 150.738 71.096C152.722 69.944 154.258 68.312 155.346 66.2C156.434 64.088 156.978 61.656 156.978 58.904C156.978 56.152 156.434 53.72 155.346 51.608C154.258 49.432 152.722 47.768 150.738 46.616C148.818 45.4 146.578 44.792 144.018 44.792C141.522 44.792 139.282 45.4 137.298 46.616C135.378 47.768 133.842 49.4 132.69 51.512C131.602 53.624 131.058 56.056 131.058 58.808C131.058 61.56 131.602 64.024 132.69 66.2C133.842 68.312 135.378 69.944 137.298 71.096C139.282 72.248 141.522 72.824 144.018 72.824ZM196.247 105.272C191.639 105.272 187.607 104.696 184.151 103.544C180.695 102.456 178.007 100.76 176.087 98.456C174.231 96.216 173.303 93.432 173.303 90.104C173.303 87.864 173.879 85.752 175.031 83.768C176.183 81.784 177.847 79.992 180.023 78.392C182.263 76.728 185.047 75.32 188.375 74.168L193.271 80.504C190.327 81.464 188.183 82.648 186.839 84.056C185.559 85.528 184.919 87.096 184.919 88.76C184.919 90.232 185.399 91.48 186.359 92.504C187.383 93.528 188.727 94.264 190.391 94.712C192.119 95.224 194.039 95.48 196.151 95.48C198.199 95.48 199.959 95.224 201.431 94.712C202.967 94.2 204.151 93.432 204.983 92.408C205.879 91.448 206.327 90.296 206.327 88.952C206.327 87.224 205.719 85.816 204.503 84.728C203.287 83.64 200.855 82.968 197.207 82.712C193.943 82.456 191.031 82.104 188.471 81.656C185.975 81.144 183.767 80.568 181.847 79.928C179.927 79.224 178.295 78.456 176.951 77.624C175.671 76.792 174.615 75.96 173.783 75.128V72.92L184.055 61.88L193.367 64.856L181.271 76.76L184.919 70.424C185.623 70.808 186.295 71.192 186.935 71.576C187.639 71.896 188.503 72.216 189.527 72.536C190.551 72.792 191.895 73.048 193.559 73.304C195.223 73.56 197.335 73.784 199.895 73.976C204.119 74.36 207.575 75.16 210.263 76.376C213.015 77.592 215.031 79.224 216.311 81.272C217.591 83.256 218.231 85.72 218.231 88.664C218.231 91.544 217.431 94.232 215.831 96.728C214.295 99.288 211.895 101.336 208.631 102.872C205.367 104.472 201.239 105.272 196.247 105.272ZM196.247 68.696C192.215 68.696 188.727 67.928 185.783 66.392C182.903 64.792 180.663 62.68 179.063 60.056C177.527 57.368 176.759 54.392 176.759 51.128C176.759 47.864 177.527 44.92 179.063 42.296C180.663 39.608 182.903 37.464 185.783 35.864C188.727 34.264 192.215 33.464 196.247 33.464C200.343 33.464 203.831 34.264 206.711 35.864C209.655 37.464 211.895 39.608 213.431 42.296C214.967 44.92 215.735 47.864 215.735 51.128C215.735 54.392 214.967 57.368 213.431 60.056C211.895 62.68 209.655 64.792 206.711 66.392C203.831 67.928 200.343 68.696 196.247 68.696ZM196.247 58.808C198.743 58.808 200.759 58.168 202.295 56.888C203.831 55.608 204.599 53.72 204.599 51.224C204.599 48.728 203.831 46.84 202.295 45.56C200.759 44.216 198.743 43.544 196.247 43.544C193.815 43.544 191.799 44.216 190.199 45.56C188.663 46.84 187.895 48.728 187.895 51.224C187.895 53.72 188.663 55.608 190.199 56.888C191.799 58.168 193.815 58.808 196.247 58.808ZM204.311 43.832L202.199 34.616H222.071V42.296L204.311 43.832ZM229.722 83V34.616H241.242L242.49 43.544C243.642 41.432 245.082 39.64 246.81 38.168C248.602 36.696 250.618 35.544 252.858 34.712C255.162 33.88 257.69 33.464 260.442 33.464V47.192H256.026C254.106 47.192 252.314 47.416 250.65 47.864C249.05 48.312 247.642 49.048 246.426 50.072C245.21 51.032 244.282 52.376 243.642 54.104C243.002 55.832 242.682 58.008 242.682 60.632V83H229.722ZM282.444 84.152C278.412 84.152 275.084 83.512 272.46 82.232C269.836 80.888 267.884 79.128 266.604 76.952C265.388 74.712 264.78 72.248 264.78 69.56C264.78 66.616 265.516 64.024 266.988 61.784C268.524 59.544 270.796 57.784 273.804 56.504C276.876 55.224 280.716 54.584 285.324 54.584H297.324C297.324 52.216 297.004 50.264 296.364 48.728C295.724 47.128 294.732 45.944 293.388 45.176C292.044 44.408 290.252 44.024 288.012 44.024C285.58 44.024 283.5 44.568 281.772 45.656C280.108 46.68 279.084 48.28 278.7 50.456H266.124C266.444 47 267.564 44.024 269.484 41.528C271.468 38.968 274.06 36.984 277.26 35.576C280.524 34.168 284.14 33.464 288.108 33.464C292.652 33.464 296.588 34.232 299.916 35.768C303.244 37.304 305.804 39.512 307.596 42.392C309.388 45.272 310.284 48.824 310.284 53.048V83H299.34L297.9 75.608C297.196 76.888 296.364 78.04 295.404 79.064C294.444 80.088 293.324 80.984 292.044 81.752C290.764 82.52 289.324 83.096 287.724 83.48C286.124 83.928 284.364 84.152 282.444 84.152ZM285.516 74.168C287.18 74.168 288.652 73.88 289.932 73.304C291.276 72.664 292.428 71.832 293.388 70.808C294.348 69.72 295.084 68.504 295.596 67.16C296.172 65.752 296.556 64.248 296.748 62.648V62.552H286.86C284.876 62.552 283.244 62.808 281.964 63.32C280.748 63.768 279.852 64.44 279.276 65.336C278.7 66.232 278.412 67.256 278.412 68.408C278.412 69.688 278.7 70.744 279.276 71.576C279.852 72.408 280.684 73.048 281.772 73.496C282.86 73.944 284.108 74.168 285.516 74.168ZM340.998 84.152C336.582 84.152 332.614 83.064 329.094 80.888C325.638 78.712 322.918 75.704 320.934 71.864C318.95 68.024 317.958 63.704 317.958 58.904C317.958 53.976 318.95 49.624 320.934 45.848C322.982 42.008 325.766 39 329.286 36.824C332.87 34.584 336.87 33.464 341.286 33.464C344.742 33.464 347.782 34.104 350.406 35.384C353.03 36.664 355.142 38.488 356.742 40.856V13.88H369.702V83H358.182L356.742 76.376C355.782 77.72 354.566 79 353.094 80.216C351.686 81.432 349.99 82.392 348.006 83.096C346.022 83.8 343.686 84.152 340.998 84.152ZM344.07 72.824C346.63 72.824 348.87 72.248 350.79 71.096C352.774 69.88 354.31 68.216 355.398 66.104C356.486 63.992 357.03 61.56 357.03 58.808C357.03 56.056 356.486 53.624 355.398 51.512C354.31 49.4 352.774 47.768 350.79 46.616C348.87 45.4 346.63 44.792 344.07 44.792C341.638 44.792 339.43 45.4 337.446 46.616C335.462 47.768 333.894 49.4 332.742 51.512C331.654 53.624 331.11 56.024 331.11 58.712C331.11 61.528 331.654 63.992 332.742 66.104C333.894 68.216 335.43 69.88 337.35 71.096C339.334 72.248 341.574 72.824 344.07 72.824ZM402.752 84.152C397.888 84.152 393.568 83.128 389.792 81.08C386.08 78.968 383.168 76.056 381.056 72.344C379.008 68.568 377.984 64.216 377.984 59.288C377.984 54.232 379.008 49.784 381.056 45.944C383.168 42.04 386.08 39 389.792 36.824C393.504 34.584 397.824 33.464 402.752 33.464C407.552 33.464 411.744 34.52 415.328 36.632C418.912 38.744 421.696 41.592 423.68 45.176C425.664 48.76 426.656 52.824 426.656 57.368C426.656 58.008 426.656 58.744 426.656 59.576C426.656 60.344 426.592 61.144 426.464 61.976H387.2V54.104H413.6C413.408 50.968 412.288 48.504 410.24 46.712C408.256 44.92 405.76 44.024 402.752 44.024C400.576 44.024 398.56 44.536 396.704 45.56C394.848 46.52 393.376 48.024 392.288 50.072C391.264 52.12 390.752 54.712 390.752 57.848V60.632C390.752 63.256 391.232 65.56 392.192 67.544C393.216 69.464 394.624 70.968 396.416 72.056C398.208 73.08 400.288 73.592 402.656 73.592C405.024 73.592 406.976 73.08 408.512 72.056C410.112 71.032 411.296 69.72 412.064 68.12H425.312C424.416 71.128 422.912 73.848 420.8 76.28C418.688 78.712 416.096 80.632 413.024 82.04C409.952 83.448 406.528 84.152 402.752 84.152ZM454.166 84.152C449.75 84.152 445.91 83.448 442.646 82.04C439.382 80.632 436.822 78.68 434.966 76.184C433.11 73.688 432.054 70.872 431.798 67.736H444.662C444.982 68.952 445.526 70.072 446.294 71.096C447.062 72.056 448.086 72.824 449.366 73.4C450.646 73.976 452.182 74.264 453.974 74.264C455.702 74.264 457.11 74.04 458.198 73.592C459.286 73.08 460.086 72.408 460.598 71.576C461.174 70.744 461.462 69.88 461.462 68.984C461.462 67.64 461.078 66.616 460.31 65.912C459.542 65.144 458.422 64.536 456.95 64.088C455.478 63.64 453.686 63.192 451.574 62.744C449.27 62.296 446.998 61.752 444.758 61.112C442.582 60.408 440.63 59.544 438.902 58.52C437.174 57.496 435.798 56.184 434.774 54.584C433.75 52.984 433.238 51 433.238 48.632C433.238 45.752 434.006 43.192 435.542 40.952C437.078 38.648 439.318 36.824 442.262 35.48C445.206 34.136 448.758 33.464 452.918 33.464C458.742 33.464 463.35 34.776 466.742 37.4C470.134 40.024 472.15 43.64 472.79 48.248H460.598C460.214 46.776 459.35 45.624 458.006 44.792C456.726 43.896 454.998 43.448 452.822 43.448C450.518 43.448 448.758 43.864 447.542 44.696C446.326 45.528 445.718 46.616 445.718 47.96C445.718 48.856 446.102 49.656 446.87 50.36C447.702 51.064 448.854 51.672 450.326 52.184C451.798 52.632 453.59 53.08 455.702 53.528C459.414 54.296 462.678 55.192 465.494 56.216C468.31 57.176 470.518 58.584 472.118 60.44C473.718 62.232 474.518 64.856 474.518 68.312C474.518 71.384 473.686 74.136 472.022 76.568C470.358 78.936 467.99 80.792 464.918 82.136C461.91 83.48 458.326 84.152 454.166 84.152Z" fill="black"/>
<path d="M41.272 170.152C37.368 170.152 34.104 169.448 31.48 168.04C28.92 166.632 27 164.808 25.72 162.568C24.504 160.328 23.896 157.864 23.896 155.176C23.896 151.848 24.728 149.032 26.392 146.728C28.12 144.424 30.52 142.696 33.592 141.544C36.664 140.392 40.248 139.816 44.344 139.816H57.4C57.4 136.68 56.92 134.024 55.96 131.848C55 129.672 53.592 128.04 51.736 126.952C49.88 125.8 47.544 125.224 44.728 125.224C41.464 125.224 38.648 126.056 36.28 127.72C33.912 129.384 32.44 131.816 31.864 135.016H24.856C25.24 131.624 26.392 128.776 28.312 126.472C30.296 124.168 32.728 122.44 35.608 121.288C38.488 120.072 41.528 119.464 44.728 119.464C49.208 119.464 52.856 120.328 55.672 122.056C58.488 123.72 60.6 126.024 62.008 128.968C63.416 131.912 64.12 135.304 64.12 139.144V169H57.976L57.592 160.168C57.016 161.512 56.216 162.792 55.192 164.008C54.232 165.224 53.08 166.28 51.736 167.176C50.456 168.072 48.952 168.776 47.224 169.288C45.496 169.864 43.512 170.152 41.272 170.152ZM42.04 164.296C44.408 164.296 46.52 163.816 48.376 162.856C50.296 161.832 51.928 160.52 53.272 158.92C54.616 157.32 55.64 155.528 56.344 153.544C57.048 151.496 57.4 149.384 57.4 147.208V145.48H44.824C41.432 145.48 38.712 145.896 36.664 146.728C34.616 147.56 33.144 148.68 32.248 150.088C31.352 151.496 30.904 153.128 30.904 154.984C30.904 156.84 31.32 158.472 32.152 159.88C32.984 161.224 34.232 162.312 35.896 163.144C37.624 163.912 39.672 164.296 42.04 164.296ZM98.608 170.152C95.792 170.152 93.2 169.736 90.832 168.904C88.528 168.008 86.512 166.824 84.784 165.352C83.056 163.816 81.68 162.088 80.656 160.168L80.08 169H73.936V99.88H80.656V129.352C82.256 126.6 84.56 124.264 87.568 122.344C90.576 120.424 94.256 119.464 98.608 119.464C103.344 119.464 107.472 120.584 110.992 122.824C114.512 125 117.2 128.008 119.056 131.848C120.976 135.624 121.936 139.944 121.936 144.808C121.936 149.672 120.976 154.024 119.056 157.864C117.136 161.704 114.416 164.712 110.896 166.888C107.44 169.064 103.344 170.152 98.608 170.152ZM98.128 164.296C101.52 164.296 104.464 163.496 106.96 161.896C109.456 160.296 111.44 158.024 112.912 155.08C114.384 152.136 115.12 148.712 115.12 144.808C115.12 140.84 114.384 137.416 112.912 134.536C111.44 131.592 109.424 129.32 106.864 127.72C104.368 126.12 101.456 125.32 98.128 125.32C94.8 125.32 91.824 126.12 89.2 127.72C86.64 129.32 84.624 131.592 83.152 134.536C81.744 137.48 81.04 140.904 81.04 144.808C81.04 148.776 81.744 152.232 83.152 155.176C84.624 158.056 86.64 160.296 89.2 161.896C91.824 163.496 94.8 164.296 98.128 164.296ZM130.587 169V120.616H136.731L137.211 129.928C138.235 127.688 139.611 125.8 141.339 124.264C143.067 122.728 145.147 121.544 147.579 120.712C150.011 119.88 152.763 119.464 155.835 119.464V126.472H153.243C151.195 126.472 149.211 126.76 147.291 127.336C145.371 127.848 143.675 128.744 142.203 130.024C140.731 131.304 139.547 133.032 138.651 135.208C137.755 137.384 137.307 140.104 137.307 143.368V169H130.587ZM181.644 170.152C177.228 170.152 173.228 169.128 169.644 167.08C166.124 164.968 163.34 162.024 161.292 158.248C159.244 154.408 158.22 149.96 158.22 144.904C158.22 139.656 159.244 135.144 161.292 131.368C163.404 127.592 166.252 124.68 169.836 122.632C173.42 120.52 177.42 119.464 181.836 119.464C186.444 119.464 190.508 120.52 194.028 122.632C197.548 124.68 200.332 127.592 202.38 131.368C204.428 135.144 205.452 139.656 205.452 144.904C205.452 149.96 204.396 154.408 202.284 158.248C200.236 162.024 197.42 164.968 193.836 167.08C190.316 169.128 186.252 170.152 181.644 170.152ZM181.74 164.392C184.748 164.392 187.5 163.656 189.996 162.184C192.556 160.712 194.604 158.536 196.14 155.656C197.74 152.712 198.54 149.096 198.54 144.808C198.54 140.456 197.772 136.84 196.236 133.96C194.7 131.08 192.652 128.936 190.092 127.528C187.596 126.056 184.844 125.32 181.836 125.32C178.956 125.32 176.236 126.056 173.676 127.528C171.116 129 169.036 131.176 167.436 134.056C165.9 136.872 165.132 140.456 165.132 144.808C165.132 149.096 165.9 152.712 167.436 155.656C168.972 158.536 170.988 160.712 173.484 162.184C176.044 163.656 178.796 164.392 181.74 164.392ZM229.533 170.152C225.629 170.152 222.365 169.448 219.741 168.04C217.181 166.632 215.261 164.808 213.981 162.568C212.765 160.328 212.157 157.864 212.157 155.176C212.157 151.848 212.989 149.032 214.653 146.728C216.381 144.424 218.781 142.696 221.853 141.544C224.925 140.392 228.509 139.816 232.605 139.816H245.661C245.661 136.68 245.181 134.024 244.221 131.848C243.261 129.672 241.853 128.04 239.997 126.952C238.141 125.8 235.805 125.224 232.989 125.224C229.725 125.224 226.909 126.056 224.541 127.72C222.173 129.384 220.701 131.816 220.125 135.016H213.117C213.501 131.624 214.653 128.776 216.573 126.472C218.557 124.168 220.989 122.44 223.869 121.288C226.749 120.072 229.789 119.464 232.989 119.464C237.469 119.464 241.117 120.328 243.933 122.056C246.749 123.72 248.861 126.024 250.269 128.968C251.677 131.912 252.381 135.304 252.381 139.144V169H246.237L245.853 160.168C245.277 161.512 244.477 162.792 243.453 164.008C242.493 165.224 241.341 166.28 239.997 167.176C238.717 168.072 237.213 168.776 235.485 169.288C233.757 169.864 231.773 170.152 229.533 170.152ZM230.301 164.296C232.669 164.296 234.781 163.816 236.637 162.856C238.557 161.832 240.189 160.52 241.533 158.92C242.877 157.32 243.901 155.528 244.605 153.544C245.309 151.496 245.661 149.384 245.661 147.208V145.48H233.085C229.693 145.48 226.973 145.896 224.925 146.728C222.877 147.56 221.405 148.68 220.509 150.088C219.613 151.496 219.165 153.128 219.165 154.984C219.165 156.84 219.581 158.472 220.413 159.88C221.245 161.224 222.493 162.312 224.157 163.144C225.885 163.912 227.933 164.296 230.301 164.296ZM283.317 170.152C278.645 170.152 274.549 169.064 271.029 166.888C267.573 164.648 264.885 161.608 262.965 157.768C261.045 153.928 260.085 149.576 260.085 144.712C260.085 139.848 261.045 135.528 262.965 131.752C264.885 127.912 267.605 124.904 271.125 122.728C274.645 120.552 278.741 119.464 283.413 119.464C287.509 119.464 291.093 120.36 294.165 122.152C297.301 123.88 299.701 126.344 301.365 129.544V99.88H308.085V169H301.941L301.365 160.264C300.341 161.928 298.997 163.528 297.333 165.064C295.733 166.6 293.749 167.848 291.381 168.808C289.077 169.704 286.389 170.152 283.317 170.152ZM283.893 164.296C287.285 164.296 290.229 163.496 292.725 161.896C295.285 160.296 297.269 158.024 298.677 155.08C300.149 152.136 300.885 148.712 300.885 144.808C300.885 140.904 300.149 137.48 298.677 134.536C297.269 131.592 295.285 129.32 292.725 127.72C290.229 126.12 287.285 125.32 283.893 125.32C280.565 125.32 277.621 126.12 275.061 127.72C272.501 129.32 270.485 131.592 269.013 134.536C267.605 137.416 266.901 140.84 266.901 144.808C266.901 148.776 267.637 152.232 269.109 155.176C270.581 158.056 272.597 160.296 275.157 161.896C277.717 163.496 280.629 164.296 283.893 164.296Z" fill="black" fill-opacity="0.79"/>
</svg>
